<svg width="212" height="212" viewBox="0 0 212 212" fill="none" xmlns="http://www.w3.org/2000/svg">
<circle cx="105" cy="106" r="90" fill="white" fill-opacity="0.3"/>
<circle cx="105" cy="106" r="74" fill="#89BFF2" stroke="#332D57" stroke-width="8"/>
<mask id="mask0_2_334" style="mask-type:alpha" maskUnits="userSpaceOnUse" x="35" y="36" width="140" height="140">
<circle cx="105" cy="106" r="70" fill="#D2E1FB"/>
</mask>
<g mask="url(#mask0_2_334)">
<circle cx="89" cy="106" r="70" fill="#D2E1FB"/>
</g>
<mask id="mask1_2_334" style="mask-type:alpha" maskUnits="userSpaceOnUse" x="35" y="36" width="140" height="140">
<circle cx="105" cy="106" r="70" fill="#89BFF2"/>
</mask>
<g mask="url(#mask1_2_334)">
<circle cx="125" cy="43" r="9" transform="rotate(-90 125 43)" fill="#C5E0EF" stroke="#332D57" stroke-width="6"/>
<circle cx="112" cy="173" r="10" transform="rotate(-90 112 173)" stroke="#332D57" stroke-width="6"/>
</g>
<path fill-rule="evenodd" clip-rule="evenodd" d="M81.3677 55.0474C81.3677 52.0875 78.3536 50.1004 75.7542 51.5162C62.5298 58.7193 52.2187 70.5968 47.0402 84.9295C46.1284 87.453 48.0838 90.0001 50.7669 90.0001C52.5572 90.0001 54.124 88.8281 54.749 87.1505C59.2522 75.0624 67.9617 65.0222 79.0978 58.8097C80.4706 58.0439 81.3677 56.6193 81.3677 55.0474Z" fill="white"/>
<circle cx="46.3677" cy="99" r="4" fill="white"/>
<path fill-rule="evenodd" clip-rule="evenodd" d="M35.427 91.1541C36.2847 90.624 36.8968 89.7824 37.1444 88.805C37.9917 85.4609 34.4586 82.3606 31.5187 84.1656C12.0952 96.0908 1.06304 110.423 3.42165 123.799C7.80475 148.657 56.772 160.801 112.793 150.923C168.814 141.045 210.675 112.886 206.292 88.0279C205.349 82.6769 202.339 77.9151 197.638 73.8352C195.907 72.3327 193.292 72.877 192.069 74.816L190.335 77.5647C190.17 77.8267 190.238 78.1717 190.487 78.3554C195.42 81.9886 197.771 85.7706 198.414 89.4171C199.057 93.0636 198.142 97.4214 194.749 102.523C191.325 107.671 185.635 113.137 177.729 118.455C161.936 129.079 138.578 138.253 111.404 143.044C84.2303 147.836 59.1433 147.204 40.6688 142.622C31.4206 140.329 24.2048 137.139 19.2263 133.472C14.2934 129.839 11.9431 126.057 11.3001 122.41C10.6571 118.764 11.5721 114.406 14.965 109.305C18.3891 104.156 24.0787 98.6908 31.9847 93.3725C33.0952 92.6255 34.243 91.8857 35.427 91.1541ZM184.997 71.0317C183.912 72.7519 181.72 73.3835 179.832 72.6278C176.623 71.3434 173.022 70.1913 169.045 69.2051C167.846 68.9077 166.618 68.6269 165.365 68.3632C164.379 68.1559 163.514 67.5673 162.949 66.7334C161.013 63.8759 163.287 59.7621 166.667 60.4626C172.785 61.7307 178.367 63.3859 183.293 65.3981C185.514 66.3054 186.277 69.0026 184.997 71.0317Z" fill="#332D57"/>
<mask id="mask2_2_334" style="mask-type:alpha" maskUnits="userSpaceOnUse" x="27" y="28" width="156" height="156">
<circle cx="105" cy="106" r="74" fill="#89BFF2" stroke="#332D57" stroke-width="8"/>
</mask>
<g mask="url(#mask2_2_334)">
<path fill-rule="evenodd" clip-rule="evenodd" d="M115.495 118.564C114.729 121.424 117.205 124.102 120.103 123.496C162.157 114.699 195.01 95.663 204.096 76.1884C205.494 73.192 202.609 70.4402 199.415 71.296C198.056 71.6602 196.964 72.6479 196.308 73.8926C195.861 74.7404 195.343 75.6107 194.749 76.5038C191.325 81.6522 185.635 87.1178 177.729 92.436C163.349 102.109 142.699 110.58 118.607 115.635C117.102 115.951 115.893 117.079 115.495 118.564ZM27.1006 119.277C27.3327 118.411 26.5245 117.622 25.658 117.854C24.5937 118.139 24.4429 119.577 25.4567 120.008C25.4858 120.021 25.5149 120.033 25.544 120.045C26.188 120.319 26.9195 119.953 27.1006 119.277Z" fill="#332D57"/>
<path fill-rule="evenodd" clip-rule="evenodd" d="M137.756 153.932C136.928 157.022 139.828 159.795 142.846 158.735C171.305 148.735 192.337 134.024 199.323 119.053C200.721 116.057 197.836 113.303 194.642 114.158C193.283 114.523 192.192 115.51 191.535 116.755C191.088 117.603 190.57 118.473 189.976 119.366C186.552 124.515 180.863 129.98 172.957 135.298C164.204 141.186 153.129 146.628 140.369 151.126C139.09 151.577 138.106 152.622 137.756 153.932ZM46.3092 166.035C46.9281 163.725 45.3871 161.4 43.0334 160.979C40.5593 160.537 38.1774 160.032 35.8964 159.466C34.5798 159.139 33.3044 158.795 32.0708 158.433C31.2498 158.192 30.3785 158.173 29.5522 158.394C25.4923 159.482 25.1228 164.698 29.1473 165.91C33.0985 167.1 37.3561 168.1 41.8755 168.899C43.8717 169.252 45.7846 167.993 46.3092 166.035Z" fill="#332D57"/>
</g>
<circle cx="163" cy="27" r="10" fill="#F7931B" stroke="#332D57" stroke-width="8"/>
<circle cx="183" cy="160" r="6" fill="#332D57"/>
<circle cx="106" cy="123" r="4" transform="rotate(-90 106 123)" fill="#332D57"/>
<circle cx="58" cy="129" r="7" transform="rotate(-90 58 129)" fill="#D2E1FB" stroke="#332D57" stroke-width="6"/>
<circle cx="84" cy="86" r="13" fill="#86B7E5"/>
<path fill-rule="evenodd" clip-rule="evenodd" d="M95 86C95 92.0751 90.0751 97 84 97C77.9249 97 73 92.0751 73 86C73 79.9249 77.9249 75 84 75C86.4254 75 88.6675 75.785 90.4861 77.1148C91.4597 77.8267 92.6796 78.2087 93.8447 77.8965C96.014 77.3153 96.9575 74.7695 95.2776 73.279C92.2767 70.6167 88.3271 69 84 69C74.6112 69 67 76.6112 67 86C67 95.3888 74.6112 103 84 103C93.3888 103 101 95.3888 101 86C101 84.4519 99.4668 83.4743 97.9715 83.875L96.1895 84.3525C95.4625 84.5473 95 85.2473 95 86Z" fill="#332D57"/>
</svg>
