<svg width="195" height="195" viewBox="0 0 195 195" fill="none" xmlns="http://www.w3.org/2000/svg">
<path fill-rule="evenodd" clip-rule="evenodd" d="M195 97.3969C195 106.869 193.764 115.929 191.293 124.372C186.352 141.668 176.674 156.906 163.907 168.849C154.847 177.291 143.933 184.086 132.196 188.616C121.489 192.735 109.752 195 97.603 195C95.9557 195 94.1024 195 92.4551 194.794C89.9842 194.588 87.3073 194.382 84.8364 194.176C65.8923 191.705 48.8016 183.88 35.0054 172.143C29.8575 167.819 25.1215 162.877 20.7974 157.524C17.7087 153.611 14.8259 149.287 12.149 144.757C11.5313 143.727 10.9135 142.698 10.5017 141.462C10.5017 141.462 10.5017 141.462 10.5017 141.256C9.88397 140.021 9.26623 138.991 8.8544 137.756C7.2071 134.049 5.76569 130.137 4.53021 126.225C3.70656 123.342 2.88293 120.459 2.26519 117.576C1.85336 115.517 1.44153 113.458 1.23562 111.193C0.617881 106.663 0.206055 102.133 0.206055 97.3969C0.206055 94.72 0.411962 92.0432 0.617875 89.3663C0.823788 87.719 1.02971 86.0717 1.23562 84.4244C2.4711 74.7465 5.14795 65.6863 9.0603 57.2438C10.9135 53.1256 13.1786 49.0073 15.6495 45.095C19.7678 38.7117 24.5038 32.7402 30.0635 27.5924C47.5661 10.5016 71.6579 0 98.0148 0C99.0444 0 100.074 0 101.104 0C102.133 0 103.369 1.25649e-05 104.398 0.205926C109.958 0.617752 115.517 1.4414 120.665 2.67688C123.754 3.50053 126.843 4.32419 129.725 5.35376C131.785 5.9715 133.638 6.79513 135.697 7.61878C137.138 8.23652 138.58 8.85428 140.021 9.47202C140.227 9.67793 140.433 9.67793 140.845 9.88384C150.317 14.4139 158.965 20.5913 166.378 28.0042C167.408 29.0338 168.437 30.0633 169.467 31.0929C170.084 31.9166 170.908 32.5343 171.526 33.358C172.761 34.5934 173.791 36.0348 174.82 37.2703C178.733 42.2122 182.027 47.5659 184.91 53.1256C188.205 59.7148 190.882 66.7159 192.735 73.9228C193.97 81.3357 195 89.1604 195 97.3969Z" fill="url(#paint0_radial_303_519)"/>
<path d="M122.518 72.07C122.518 71.2463 125.264 71.7268 126.637 72.07H132.814C135.285 72.07 131.784 74.1289 129.725 75.1584C128.696 75.5015 126.225 76.1879 124.577 76.1879C122.518 76.1879 122.518 73.0996 122.518 72.07Z" fill="url(#paint1_linear_303_519)"/>
<path fill-rule="evenodd" clip-rule="evenodd" d="M140.227 9.67776C139.815 9.67776 139.609 9.67777 139.197 9.88369C138.168 10.0896 137.138 9.88367 136.109 9.67776C135.285 9.47185 134.873 9.06001 133.844 9.06001C132.608 8.8541 131.579 8.44229 130.343 8.23637C129.108 8.03046 128.078 7.61863 126.843 7.20681C125.813 6.79498 125.401 7.00089 124.577 7.20681C123.754 7.41272 123.136 7.0009 122.312 6.79499C121.489 6.38316 120.459 6.38315 119.636 6.17724C117.165 5.76542 114.694 4.94178 112.223 4.32404C110.781 3.91221 109.34 3.91218 107.693 3.91218C106.457 3.91218 105.428 4.32404 104.192 4.32404C103.368 4.32404 102.751 4.11811 101.927 4.11811C101.103 3.9122 100.28 4.11811 99.4561 4.11811C98.2206 3.9122 97.6029 3.70628 96.3674 4.11811C95.3378 4.32402 94.7201 4.32402 93.6905 4.52993C92.6609 4.52993 91.4254 4.94176 90.3959 5.14768C88.5427 5.5595 86.4836 5.97132 84.6303 5.97132C83.3949 5.97132 81.7475 5.55949 80.718 5.97132C80.1002 6.17723 79.6884 7.00091 79.0706 7.41273C78.0411 8.4423 77.0115 9.26594 76.1879 10.2955C75.3642 11.3251 74.5406 12.5605 74.5406 14.0019C74.5406 15.2374 75.1583 16.6788 75.7761 17.7084C76.3938 18.9439 76.5997 19.9734 75.3642 20.7971C73.9228 21.8267 72.0696 22.6503 70.4223 23.268C69.1868 23.6798 68.1573 23.8858 67.3336 23.0621C66.9218 22.8562 66.7159 22.2385 66.304 21.8267C65.8922 21.6207 65.2745 21.8267 64.8627 22.0326C63.6272 22.4444 62.3917 22.8562 61.1562 23.0621C60.3326 23.2681 59.7148 23.6799 58.8912 23.6799C58.0675 23.8858 57.4498 23.268 56.4202 23.4739C55.1847 23.6798 53.7433 24.2976 52.5079 24.2976C51.4783 24.2976 50.2428 23.8858 49.4192 23.4739C49.0073 23.268 48.8014 22.8562 48.1837 23.0621C47.7718 23.0621 47.1541 23.6799 46.9482 24.0917C46.5364 24.5035 46.5364 25.1212 46.1245 25.5331C45.7127 26.1508 45.5068 26.5627 45.095 27.1804C44.4772 28.21 43.8595 29.2395 43.2418 30.2691C42.8299 30.8868 42.4181 31.9164 41.8004 32.5341C41.5945 32.9459 40.9767 33.1519 40.5649 33.3578C39.5353 33.9755 38.5058 34.7992 37.4762 35.4169C35.623 36.8583 33.7698 38.5056 31.9165 39.947C30.4752 40.9766 28.416 41.5943 26.7687 42.418C25.7391 42.8298 24.7096 43.2416 23.68 43.6535C23.2682 43.8594 22.6504 43.8594 22.4445 44.2712C22.0327 44.683 21.8268 45.0949 21.6209 45.7126C20.7972 46.7422 19.7677 47.9776 19.1499 49.2131C18.7381 50.0367 18.5322 50.6545 18.1204 51.4781C17.7085 52.5077 17.0908 53.5373 16.8849 54.7728C16.0612 57.0378 16.0612 59.5088 15.0317 61.7738C14.6198 63.0093 13.7962 64.2447 13.1784 65.4802C12.1489 67.5393 11.943 70.0103 11.737 72.2754C11.5311 73.5109 11.7371 75.1582 11.943 76.3937C12.1489 77.835 12.1489 79.2765 12.1489 80.7178C12.1489 82.1592 11.1193 83.8065 10.2957 84.8361C9.47201 85.8657 8.0306 86.2775 7.00104 87.307C6.17738 88.1307 5.14784 88.9543 4.73601 90.1898C4.5301 90.6016 4.73601 91.2194 4.73601 91.8371C4.5301 93.0726 4.11826 94.1021 4.11826 95.3376C3.91235 96.779 3.91234 98.2204 3.91234 99.8677C3.91234 100.691 3.91234 101.309 3.91234 102.133C3.91234 102.956 4.11828 103.574 4.32419 104.192C4.32419 104.604 4.32419 105.221 4.32419 105.633C4.32419 106.251 4.73601 106.869 4.73601 107.281C5.14784 108.722 5.35374 109.957 5.55965 111.399C5.76556 112.634 6.3833 113.87 6.58922 115.105C7.20696 116.753 7.41288 118.4 7.82471 120.253C8.03062 121.489 8.03061 122.93 8.23653 124.165C8.44244 125.195 8.64835 126.225 8.64835 127.254C8.64835 128.901 8.23653 130.343 8.23653 131.99C8.23653 134.667 9.2661 137.344 9.88384 140.021C10.0898 140.844 10.2957 141.462 10.5016 142.286C3.70645 129.107 0 114.076 0 98.2205C0 78.8646 5.55964 60.9501 15.2376 45.9185C19.3558 39.5352 24.0918 33.5637 29.6515 28.4158C47.1541 11.325 71.2459 0.823486 97.6028 0.823486C99.662 0.823486 101.927 0.823499 103.986 1.02941C116.753 0.823499 129.108 4.1181 140.227 9.67776Z" fill="url(#paint2_linear_303_519)"/>
<path d="M116.341 81.3357C121.283 82.1593 128.01 84.4244 130.755 85.4539H136.932C138.991 85.4539 150.317 93.6905 152.376 98.8383C154.435 103.986 160.612 98.8383 165.76 98.8383C170.908 98.8383 158.553 116.341 154.435 120.459C150.317 124.577 157.524 132.814 158.553 134.873C159.583 136.932 155.464 140.021 154.435 148.257C153.405 156.494 150.317 167.819 148.257 175.026C146.61 180.792 138.648 185.665 134.873 187.381C133.5 188.067 129.931 188.205 126.637 183.263C122.518 177.085 120.459 166.79 119.43 162.671C118.4 158.553 127.666 136.932 109.134 134.873C90.6017 132.814 100.898 150.317 77.2178 132.814C53.5378 115.311 80.3065 81.3357 82.3656 78.247C84.4247 75.1583 89.5726 78.247 98.8387 75.1583C106.252 72.6873 113.596 74.1287 116.341 75.1583C114.282 76.8742 111.399 80.512 116.341 81.3357Z" fill="url(#paint3_linear_303_519)"/>
<path d="M14.5111 139.031C15.1856 137.036 11.9818 130.44 10.2957 127.391C11.7008 125.451 15.1856 122.07 17.8835 124.065C21.2558 126.56 31.3729 120.739 34.7453 121.571C38.1177 122.402 45.7055 123.234 46.5486 125.728C47.3917 128.222 47.3917 134.042 49.0779 136.537C50.4268 138.532 49.0779 144.02 48.2348 146.514C47.9537 147.346 46.8858 149.175 44.8624 149.84C42.3331 150.671 48.2348 150.671 53.2933 152.334C58.3519 153.997 54.9795 162.312 56.6657 166.469C58.3519 170.626 67.6259 178.109 69.312 179.772C70.9982 181.435 69.312 183.929 67.6259 183.098C65.9397 182.266 47.3917 167.3 38.9608 165.637C32.216 164.307 19.8507 151.226 14.5111 144.851C14.2301 143.743 13.8366 141.027 14.5111 139.031Z" fill="url(#paint4_linear_303_519)"/>
<path d="M37.0647 57.6558V53.5375V48.3897C37.0647 46.3307 35.0055 46.3306 32.9464 43.2419C30.8873 40.1532 32.9464 41.1827 36.0351 40.1532C39.1238 39.1236 38.0942 42.2123 38.0942 43.2419C38.0942 44.2714 42.2125 46.3306 43.2421 46.3306C44.2716 46.3306 48.3899 46.3306 47.3603 48.3897C46.3308 50.4488 46.3308 51.4784 43.2421 55.5967C40.7711 58.8913 38.0942 58.3422 37.0647 57.6558Z" fill="url(#paint5_linear_303_519)"/>
<path d="M35.0046 50.4488C35.8283 49.6251 31.9159 46.6737 29.8568 45.301C29.5136 47.0169 28.4154 50.8606 26.7681 52.5079C24.709 54.5671 29.8568 54.5671 31.9159 55.5966C33.9751 56.6262 33.9751 51.4784 35.0046 50.4488Z" fill="url(#paint6_linear_303_519)"/>
<path d="M165.76 135.902C168.231 135.902 170.222 131.784 170.908 129.725C171.764 127.666 173.997 127.666 175.026 128.695C176.056 129.725 175.026 141.05 171.938 146.198C168.849 151.346 165.76 150.316 163.701 150.316C161.642 150.316 163.701 146.198 165.76 144.139C167.819 142.08 162.671 135.902 165.76 135.902Z" fill="url(#paint7_linear_303_519)"/>
<path fill-rule="evenodd" clip-rule="evenodd" d="M136.932 76.187C136.932 79.4816 134.873 80.9916 133.843 81.3348L140.021 84.4244C139.678 83.3945 140.021 81.3348 144.139 81.3348C146.713 81.3348 149.03 85.4532 151.346 89.5715C153.663 93.6899 155.979 97.8083 158.553 97.8083C163.701 97.8083 176.056 90.6018 179.145 87.5131C181.615 85.0421 178.115 80.9925 176.056 79.2766C175.369 81.3357 172.143 83.6006 164.731 76.187C155.464 66.9199 158.553 64.8622 164.731 68.98C169.672 72.2742 172.967 71.7256 173.997 71.0396C175.369 70.353 179.556 69.8037 185.322 73.0987C191.087 76.3937 191.156 99.1815 190.47 110.164C192.529 101.927 195.823 82.9829 192.529 73.0987C182.233 42.2113 169.878 30.8865 158.553 20.5908C149.493 12.3543 126.637 4.11809 116.341 1.02954C113.595 2.4023 107.692 6.17737 106.045 10.2956C104.11 15.1339 103.084 15.4244 96.9845 17.1518C96.5942 17.2623 96.1831 17.3787 95.7497 17.5026C90.7743 18.9244 90.7057 18.8736 89.1081 17.6896C88.3915 17.1585 87.3673 16.3994 85.4545 15.443C80.8689 13.15 74.5801 15.9639 69.1169 18.4084C67.2212 19.2566 65.4248 20.0604 63.8335 20.5908C57.6566 22.65 52.5083 28.8274 52.5083 30.8865C52.5083 31.6159 51.9915 32.2162 51.507 32.7788C50.624 33.8043 49.8487 34.7046 52.5083 36.0343C55.2136 37.3868 57.4742 36.9626 59.8743 36.5121C61.1282 36.2768 62.4202 36.0343 63.8335 36.0343C67.9522 36.0343 65.8922 39.123 63.8335 41.1822C61.7748 43.2413 57.6557 44.2709 52.5083 45.3004C49.7568 45.8508 49.3584 47.5779 48.7974 50.0099C48.309 52.1276 47.6972 54.7797 45.3014 57.6548C42.3406 61.2078 41.3309 62.4901 41.1247 62.8027C39.4045 62.812 36.6802 63.2329 39.1235 64.8622L39.1291 64.8659C42.2159 66.9242 45.2989 68.98 41.1827 68.98C39.3825 68.98 38.1725 70.3567 37.0369 71.6489C35.5742 73.3132 34.2349 74.8372 31.9166 73.0987C28.8279 70.7825 26.8977 73.6778 24.3882 77.4419C23.5518 78.6966 22.6509 80.0478 21.6214 81.3348C18.9821 84.6339 19.7257 86.6646 20.6002 89.0527C21.0902 90.3909 21.6214 91.8413 21.6214 93.69C21.6214 96.3548 22.7249 96.2607 24.3608 96.1212C25.885 95.9913 27.8715 95.8219 29.8579 97.8083C33.666 101.616 40.9956 96.6211 44.52 94.2191C44.807 94.0235 45.0688 93.8451 45.3014 93.69C48.3901 91.6309 53.5379 76.187 52.5083 73.0987C51.6353 70.4802 58.1643 66.3806 62.0534 63.9386C62.7511 63.5006 63.3638 63.1158 63.8335 62.8026C66.0595 61.3183 68.2855 63.0431 71.6676 65.6638C72.9784 66.6796 74.4629 67.8298 76.1883 68.98C79.9758 71.5047 79.893 71.7077 79.4993 72.6733C79.2509 73.2826 78.8787 74.1955 79.277 76.187C79.7918 78.7607 80.3066 77.7312 81.2076 75.9296C82.1084 74.128 83.3954 71.5543 85.4545 71.0396C89.5728 70.01 87.5137 65.8917 81.3363 64.8622C75.1589 63.8326 68.9815 57.6548 72.0702 57.6548H85.4545C90.6024 57.6548 93.6906 60.7439 91.6315 62.8026C89.5723 64.8613 99.8679 68.98 102.957 68.98C105.212 68.98 103.625 65.6864 101.802 61.9049C101.129 60.5076 100.424 59.0437 99.8679 57.6548C98.4322 54.0655 102.002 55.4814 104.992 56.6677C106.291 57.1829 107.481 57.6548 108.104 57.6548C110.163 57.6548 111.193 59.7139 108.104 62.8026C105.015 65.8913 116.341 68.98 119.429 68.98H131.784C136.932 68.98 136.932 72.0687 136.932 76.187ZM113.252 56.6256C115.655 56.9688 120.871 57.4493 122.518 56.6256C124.166 55.802 129.382 58.3416 131.784 59.7143C133.157 60.0575 135.697 60.3321 134.873 58.6848C133.844 56.6256 127.666 49.4187 123.548 50.4483C119.43 51.4778 112.223 55.5956 113.252 56.6256Z" fill="url(#paint8_linear_303_519)"/>
<defs>
<radialGradient id="paint0_radial_303_519" cx="0" cy="0" r="1" gradientUnits="userSpaceOnUse" gradientTransform="translate(37.0701 51.6638) scale(156.703 156.703)">
<stop offset="0.00558659" stop-color="#0CB9C4"/>
<stop offset="0.2058" stop-color="#0C96C1"/>
<stop offset="0.3613" stop-color="#0B79B7"/>
<stop offset="0.5018" stop-color="#096EA7"/>
<stop offset="0.6334" stop-color="#075E8F"/>
<stop offset="0.7576" stop-color="#044A72"/>
<stop offset="0.8715" stop-color="#003C74"/>
</radialGradient>
<linearGradient id="paint1_linear_303_519" x1="128.091" y1="71.6152" x2="128.091" y2="76.1879" gradientUnits="userSpaceOnUse">
<stop stop-color="#43991F"/>
<stop offset="1" stop-color="#4BFF00" stop-opacity="0"/>
</linearGradient>
<linearGradient id="paint2_linear_303_519" x1="-0.0679514" y1="70.529" x2="140.261" y2="70.529" gradientUnits="userSpaceOnUse">
<stop stop-color="#2CB3FF"/>
<stop offset="0.0885417" stop-color="#2CA6FF"/>
<stop offset="0.2325" stop-color="#2DCAFC"/>
<stop offset="0.3947" stop-color="#32AEF3"/>
<stop offset="0.5382" stop-color="#3A7EE3"/>
<stop offset="0.6707" stop-color="#446ACD"/>
<stop offset="0.7958" stop-color="#4268B1"/>
<stop offset="0.9136" stop-color="#1F598E"/>
<stop offset="1" stop-color="#005D72"/>
</linearGradient>
<linearGradient id="paint3_linear_303_519" x1="117.246" y1="73.7939" x2="117.246" y2="187.729" gradientUnits="userSpaceOnUse">
<stop stop-color="#43991F"/>
<stop offset="1" stop-color="#4BFF00" stop-opacity="0"/>
</linearGradient>
<linearGradient id="paint4_linear_303_519" x1="40.1531" y1="121.489" x2="40.1531" y2="183.263" gradientUnits="userSpaceOnUse">
<stop stop-color="#43991F"/>
<stop offset="1" stop-color="#4BFF00" stop-opacity="0"/>
</linearGradient>
<linearGradient id="paint5_linear_303_519" x1="39.8209" y1="39.946" x2="39.8209" y2="58.1765" gradientUnits="userSpaceOnUse">
<stop stop-color="#43991F"/>
<stop offset="1" stop-color="#4BFF00" stop-opacity="0"/>
</linearGradient>
<linearGradient id="paint6_linear_303_519" x1="30.7039" y1="45.301" x2="30.7039" y2="55.732" gradientUnits="userSpaceOnUse">
<stop stop-color="#43991F"/>
<stop offset="1" stop-color="#4BFF00" stop-opacity="0"/>
</linearGradient>
<linearGradient id="paint7_linear_303_519" x1="169.13" y1="128.019" x2="169.13" y2="150.4" gradientUnits="userSpaceOnUse">
<stop stop-color="#43991F"/>
<stop offset="1" stop-color="#4BFF00" stop-opacity="0"/>
</linearGradient>
<linearGradient id="paint8_linear_303_519" x1="106.859" y1="1.02954" x2="106.859" y2="110.164" gradientUnits="userSpaceOnUse">
<stop stop-color="#43991F"/>
<stop offset="1" stop-color="#4BFF00" stop-opacity="0"/>
</linearGradient>
</defs>
</svg>
